<svg width="221" height="221" viewBox="0 0 221 221" fill="none" xmlns="http://www.w3.org/2000/svg">
<path d="M119.16 10.3633C62.5348 10.3633 19.6476 53.8858 11.4877 114.808C4.71505 165.372 33.0275 205.77 80.3201 209.071C118.33 211.725 177.595 214.325 200.518 172.748C210.555 154.545 210.171 132.907 210.171 112.42C210.171 100.052 211.821 86.0163 207.643 74.2113C198.102 47.2522 181.04 33.7338 156.392 25.0684C147.918 22.0892 142.421 19.9181 133.639 19.4126C125.943 18.9695 118.977 12.6256 110.887 12.6256" stroke="black" stroke-width="20" stroke-linecap="round"/>
<path d="M67.9359 85.02C70.7337 85.02 81.8216 83.4419 83.4324 86.2768C85.428 89.7892 81.4328 99.9512 81.4328 104.124C81.4328 109.836 68.252 109.536 66.1863 105.381C62.215 97.393 61.1536 89.099 70.1854 87.2823" stroke="black" stroke-width="20" stroke-linecap="round"/>
<path d="M144.419 85.0205C139.515 85.0205 128.959 91.5743 133.672 98.0918C136.791 102.405 147.086 103.296 151.668 103.119C158.304 102.862 158.215 94.6596 157.916 89.5452C157.692 85.7153 149.44 87.2828 146.669 87.2828" stroke="black" stroke-width="20" stroke-linecap="round"/>
<path d="M67.9375 155.153C85.3891 155.153 101.249 171.432 119.676 168.225C131.091 166.238 141.453 160.039 151.169 155.153" stroke="black" stroke-width="20" stroke-linecap="round"/>
</svg>
