<svg width="20" height="20" viewBox="0 0 20 20" fill="none" xmlns="http://www.w3.org/2000/svg">
<path d="M9.97291 2.38811C7.75787 2.38811 4.71087 2.77823 3.35039 4.90245C2.39431 6.39527 2.29715 8.51576 2.26671 10.2615C2.23934 11.831 2.73155 13.291 3.69442 14.4827C4.95882 16.0476 6.73444 17.1191 8.61401 17.5476C10.5059 17.9789 13.3413 18.0576 15.2107 17.4834C17.8171 16.6828 18.0597 14.0623 18.2296 11.4728C18.3858 9.09195 18.0543 5.89502 16.8449 3.81046C15.9664 2.29642 13.5054 1.89258 12.0113 1.89258C10.7921 1.89258 9.61629 2.22293 8.42479 2.22293" stroke="black" stroke-width="3" stroke-linecap="round"/>
<path d="M6.87695 7.0127C6.85405 7.20862 6.56553 7.1783 6.72213 7.1783" stroke="#F41B1B" stroke-width="3" stroke-linecap="round"/>
<path d="M7.49661 11.9682C7.47329 11.7692 7.3418 11.7104 7.3418 11.4727" stroke="#F4EC1B" stroke-width="3" stroke-linecap="round"/>
<path d="M10.9009 6.35254C10.9267 6.57298 11.04 6.51815 10.7461 6.51815" stroke="#D61BF4" stroke-width="3" stroke-linecap="round"/>
<path d="M10.5918 10.6473C11.0487 10.6473 11.5805 10.5515 11.211 11.1429" stroke="#46F41B" stroke-width="3" stroke-linecap="round"/>
<path d="M13.2246 14.4463V14.7775" stroke="#1BF4F4" stroke-width="3" stroke-linecap="round"/>
<path d="M14.6172 7.17871V7.67424" stroke="#DD7B08" stroke-width="3" stroke-linecap="round"/>
</svg>
