<svg width="20" height="20" viewBox="0 0 20 20" fill="none" xmlns="http://www.w3.org/2000/svg">
<path d="M8.1362 3.41464C6.51246 3.41464 3.87558 2.83307 2.96499 5.37534C1.96921 8.15547 2.23099 13.3787 2.49284 16.4749C2.62864 18.0806 5.4096 17.7709 6.11268 17.7709C9.14089 17.7709 10.8552 17.1157 11.6886 12.5202C12.0898 10.3081 12.9182 4.21798 11.5537 2.38445C10.6894 1.22308 6.55089 2.11169 5.41569 2.25152C3.1872 2.52601 2.47036 6.72588 2.47036 9.39643" stroke="black" stroke-width="3" stroke-linecap="round"/>
<path d="M8.13697 16.5752C7.77347 16.6349 7.14621 17.1436 7.91213 17.1734C9.78306 17.2461 11.6614 17.1734 13.533 17.1734C15.1069 17.1734 16.6807 17.1734 18.2545 17.1734" stroke="black" stroke-width="3" stroke-linecap="round"/>
<path d="M3.28125 8.2002C5.77428 8.56868 7.76853 11.1911 10.1612 11.1911" stroke="black" stroke-width="3" stroke-linecap="round"/>
</svg>
