<svg width="16" height="16" viewBox="0 0 16 16" fill="none" xmlns="http://www.w3.org/2000/svg">
<path d="M2.48541 7.25367C2.53942 7.00162 2.73124 6.773 2.83265 6.53792C2.98435 6.18624 3.17706 5.85008 3.31454 5.49264C3.56866 4.83192 4.02701 4.35119 4.43068 3.77768C4.63243 3.49105 4.77572 3.17219 5.06139 2.95563C5.56582 2.57324 6.25412 2.46035 6.86316 2.35681C7.48441 2.2512 8.16734 2.15845 8.78895 2.31784C9.21638 2.42743 9.62167 2.77639 9.96179 3.04244C10.4709 3.44072 10.916 3.79096 11.209 4.36941C11.4235 4.79278 11.634 5.21518 11.8504 5.63792C12.0796 6.08565 12.3476 6.51401 12.5697 6.96489C12.7833 7.39871 12.8814 7.86215 12.9701 8.33438C13.1053 9.05521 13.2333 9.76088 13.2783 10.494C13.3102 11.0129 13.3166 11.5326 13.374 12.0495C13.4538 12.768 12.8006 13.166 12.1994 13.3889C11.891 13.5033 11.6068 13.565 11.2799 13.5678C10.7253 13.5726 10.1749 13.6611 9.61809 13.6635C8.99212 13.6663 8.38181 13.6479 7.76316 13.5448C6.87222 13.3963 5.91908 13.1848 5.10037 12.7936C4.54365 12.5276 4.19623 11.8902 3.87084 11.3993C3.48633 10.8193 3.11756 10.2001 2.81848 9.57099C2.61571 9.14448 2.42851 8.70374 2.32596 8.24225C2.28624 8.06353 2.41906 8.47854 2.44643 8.53989C2.57765 8.834 2.7539 9.21335 2.97084 9.44697C3.19733 9.69089 3.53273 9.81038 3.84781 9.8704C4.48506 9.99178 5.20798 9.97013 5.84623 9.88989C6.30642 9.83204 6.74588 9.68142 7.18738 9.54619C7.80568 9.3568 8.43205 9.18363 9.03344 8.94382C9.7902 8.64206 10.4691 8.21005 10.8582 7.46981C11.0259 7.15092 11.1533 6.75385 11.2303 6.39973C11.2481 6.31797 11.2551 6.25347 11.2551 6.16941" stroke="black" stroke-width="2" stroke-linecap="round"/>
<path d="M3.60164 8.0828C3.44149 8.61663 3.23219 9.13499 3.07368 9.67021C3.03152 9.81257 2.82485 10.3761 3.01168 9.90407C3.22609 9.36238 3.50438 8.96847 4.07998 8.79855C4.93319 8.54668 5.82046 8.4192 6.67546 8.16607C7.731 7.85357 8.87815 7.45886 9.73865 6.75052C10.1689 6.39637 10.0315 5.70065 9.96719 5.21804C9.93662 4.98876 9.90915 4.65562 9.72447 4.47926C9.59984 4.36025 9.37691 4.27682 9.21778 4.2206C9.00449 4.14524 8.76199 4.12224 8.53746 4.10367C8.07359 4.0653 7.59635 4.01152 7.13077 4.03635C6.54899 4.06738 6.07224 4.45176 5.6603 4.83005C5.16035 5.28916 4.71436 5.77873 4.42546 6.39619C4.3969 6.45721 4.17959 6.81278 4.3103 6.82316C5.34751 6.90548 6.15041 6.32113 6.97487 5.79028C7.39164 5.52194 7.80407 5.49387 8.26109 5.358C8.32096 5.3402 8.37785 5.31615 8.44179 5.31548C8.71141 5.31264 8.56706 5.51848 8.45597 5.64855C8.16396 5.99045 7.79057 6.42211 7.39652 6.65485C7.22417 6.75665 7.03365 6.82439 6.85262 6.9082C6.54068 7.05262 6.24528 7.22991 5.93668 7.38123C4.87333 7.90261 3.95036 8.47883 3.14278 9.35485C2.8785 9.64152 2.67138 10.0089 2.38274 10.2655C2.00805 10.5985 2.09119 10.9809 2.13471 11.4241C2.15234 11.6038 2.16412 11.7878 2.12762 11.9663C2.09985 12.102 2.11875 11.8765 2.12762 11.8476C2.21903 11.549 2.37673 11.2864 2.41463 10.9706C2.46317 10.5661 2.37458 10.1952 2.32782 9.79777C2.25307 9.16244 2.3049 8.47537 2.68038 7.93399C3.00709 7.4629 3.36489 7.04396 3.76109 6.64776" stroke="#EB1515" stroke-width="2" stroke-linecap="round"/>
</svg>
