<svg width="16" height="16" viewBox="0 0 16 16" fill="none" xmlns="http://www.w3.org/2000/svg">
<path d="M10.7862 2.31071C10.8016 2.29495 10.8165 2.27951 10.8311 2.26442C12.2224 0.824948 15.3375 3.44973 13.8618 4.92539M10.7862 2.31071C9.3378 3.79928 4.54165 8.2851 3.6764 9.77172M10.7862 2.31071C10.0321 3.11275 10.2234 4.19568 10.984 4.92006C11.9499 5.83979 12.9949 5.78524 13.8527 4.93452M3.6764 9.77172C3.61155 9.88314 3.56178 9.99783 3.52584 10.1143M3.6764 9.77172L3.52584 10.1143M3.52584 10.1143C3.12471 11.4144 4.44871 12.9336 5.78115 12.5615M3.52584 10.1143L1.75073 14.1534M5.78115 12.5615C5.9387 12.5175 6.09638 12.447 6.25133 12.3467M5.78115 12.5615L3.98838 13.3806M5.78115 12.5615L6.25133 12.3467M6.25133 12.3467C7.83409 11.3213 12.3862 6.40105 13.8618 4.92539M13.8618 4.92539C13.8618 4.92539 13.8587 4.92829 13.8527 4.93452M13.8618 4.92539C13.8588 4.92844 13.8557 4.93149 13.8527 4.93452M1.75073 14.1534C2.35308 13.9654 3.18847 13.6695 3.98838 13.3806M1.75073 14.1534L3.98838 13.3806M13.8527 4.93452C13.8163 4.97175 13.6735 5.12776 13.4493 5.49103C13.3302 5.68411 6.76105 12.444 6.42251 12.5178C6.22256 12.5614 5.1424 12.9639 3.98838 13.3806" stroke="black" stroke-width="3" stroke-linecap="round" stroke-linejoin="round"/>
</svg>
