<svg width="16" height="20" viewBox="0 0 16 20" fill="none" xmlns="http://www.w3.org/2000/svg">
<path d="M4.22363 9.09265C4.3737 10.4226 4.74708 15.7266 5.19781 16.6576M5.19781 16.6576C5.64853 17.5886 10.0571 17.8989 10.9588 16.9236C11.8606 15.9483 12.4617 9.83049 12.5118 9.29851H12.899C12.5484 11.6777 11.5249 16.6567 11.2845 17.0468C10.9839 17.5345 7.65271 18.6525 5.19781 16.6576Z" stroke="black" stroke-width="3" stroke-linecap="round" stroke-linejoin="round"/>
<path d="M8.01309 5.78619C5.84908 5.65664 3.63876 5.47256 2.79102 5.20831C3.87956 5.46867 13.8741 5.6494 14.1423 5.67003C14.3569 5.68653 14.1509 5.90356 14.0211 6.01001C13.4657 6.03012 10.1771 5.91574 8.01309 5.78619Z" stroke="black" stroke-width="3" stroke-linecap="round" stroke-linejoin="round"/>
<path d="M6.04834 4.92602L6.87336 1.86554L10.6295 2.09041L10.7637 5.20831" stroke="black" stroke-width="3" stroke-linecap="round" stroke-linejoin="round"/>
</svg>
