<svg width="18" height="16" viewBox="0 0 18 16" fill="none" xmlns="http://www.w3.org/2000/svg">
<path d="M4.98364 6.08586C2.11178 6.08586 0.678375 12.1172 5.49041 12.6743C8.16551 12.984 9.49607 13.2888 11.1009 13.2888M11.1009 13.2888C14.8175 13.4859 17.0346 6.3956 12.6705 6.3956M11.1009 13.2888C15.6903 13.4859 17.7948 6.3956 12.6705 6.3956M12.6705 6.3956C11.3753 6.3956 9.40402 6.3956 8.7846 6.3956M8.7846 6.3956C9.06649 5.49459 10.2772 3.82404 11.319 2.70721C10.3241 3.5425 8.3457 5.44959 8.39075 6.3956C8.4358 7.34161 9.51698 8.72311 10.0519 9.29561L8.7846 6.3956Z" stroke="black" stroke-width="3" stroke-linecap="round" stroke-linejoin="round"/>
</svg>
